<?xml version="1.0" encoding="UTF-8" standalone="no"?>
<!-- Created with Inkscape (http://www.inkscape.org/) -->

<svg
   xmlns:dc="http://purl.org/dc/elements/1.1/"
   xmlns:cc="http://creativecommons.org/ns#"
   xmlns:rdf="http://www.w3.org/1999/02/22-rdf-syntax-ns#"
   xmlns:svg="http://www.w3.org/2000/svg"
   xmlns="http://www.w3.org/2000/svg"
   xmlns:sodipodi="http://sodipodi.sourceforge.net/DTD/sodipodi-0.dtd"
   xmlns:inkscape="http://www.inkscape.org/namespaces/inkscape"
   width="210mm"
   height="297mm"
   viewBox="0 0 744.09448819 1052.3622047"
   id="svg2"
   version="1.1"
   inkscape:version="0.91 r13725"
   sodipodi:docname="logo-gki-vector-1.svg">
  <defs
     id="defs4" />
  <sodipodi:namedview
     id="base"
     pagecolor="#ffffff"
     bordercolor="#666666"
     borderopacity="1.0"
     inkscape:pageopacity="0.0"
     inkscape:pageshadow="2"
     inkscape:zoom="0.53294574"
     inkscape:cx="398.89149"
     inkscape:cy="704.15522"
     inkscape:document-units="px"
     inkscape:current-layer="layer1"
     showgrid="false"
     showguides="true"
     inkscape:guide-bbox="true"
     inkscape:window-width="1366"
     inkscape:window-height="705"
     inkscape:window-x="-8"
     inkscape:window-y="-8"
     inkscape:window-maximized="1" />
  <metadata
     id="metadata7">
    <rdf:RDF>
      <cc:Work
         rdf:about="">
        <dc:format>image/svg+xml</dc:format>
        <dc:type
           rdf:resource="http://purl.org/dc/dcmitype/StillImage" />
        <dc:title />
      </cc:Work>
    </rdf:RDF>
  </metadata>
  <g
     inkscape:label="Layer 1"
     inkscape:groupmode="layer"
     id="layer1">
    <path
       style="fill:#000000"
       d=""
       id="path4147"
       inkscape:connector-curvature="0" />
    <path
       inkscape:connector-curvature="0"
       style="opacity:1;fill:#00ccff;fill-opacity:1;stroke:none;stroke-width:2;stroke-linecap:round;stroke-linejoin:round;stroke-miterlimit:4;stroke-dasharray:none;stroke-opacity:1"
       d="m 386.44111,180.82269 5.43087,10.56059 70.80246,0 a 359.99995,345.05185 0 0 0 -76.23333,-10.56059 z m -23.24552,0.21467 a 359.99995,345.05185 0 0 0 -75.7369,10.34592 l 70.41636,0 5.32054,-10.34592 z m 11.66972,2.0334 a 2.4915982,2.4915982 0 0 0 -2.20484,1.35362 l -3.57784,6.9589 11.58325,0 -3.57784,-6.9589 a 2.4915982,2.4915982 0 0 0 -2.22273,-1.35362 z m -129.55358,21.33287 a 359.99995,345.05185 0 0 0 -31.11378,13.13813 l 130.22591,0 6.75616,-13.13813 -105.86829,0 z m 117.07438,0 -6.75616,13.13813 38.48861,0 -6.75615,-13.13813 -24.9763,0 z m 36.1809,0 6.75765,13.13813 131.37827,0 a 359.99995,345.05185 0 0 0 -30.69041,-13.13813 l -107.44551,0 z m -209.5183,26.15998 a 359.99995,345.05185 0 0 0 -20.8111,13.13812 l 162.73357,0 6.75616,-13.13812 -148.67863,0 z m 159.88472,0 -6.75616,13.13812 65.39397,0 -6.75616,-13.13812 -51.88165,0 z m 63.08775,0 6.75616,13.13812 162.79468,0 a 359.99995,345.05185 0 0 0 -20.87371,-13.13812 l -148.67713,0 z m -261.6683,26.15847 a 359.99995,345.05185 0 0 0 -16.74578,13.13813 l 114.44168,0 a 296.95623,283.43189 0 0 1 34.79449,-13.13813 l -132.49039,0 z m 185.12936,0 -6.75615,13.13813 92.29634,0 -6.75616,-13.13813 -78.78403,0 z m 130.97428,0 a 296.95623,283.43189 0 0 1 35.2611,13.13813 l 114.10625,0 a 359.99995,345.05185 0 0 0 -15.6277,-13.13813 l -133.73965,0 z m -346.51527,26.15998 a 359.99995,345.05185 0 0 0 -13.3364,13.13663 l 95.08855,0 a 296.95623,283.43189 0 0 1 20.84091,-13.13663 l -102.59306,0 z m 202.08831,0 -6.75466,13.13663 119.19871,0 -6.75466,-13.13663 -105.68939,0 z m 205.18911,0 a 296.95623,283.43189 0 0 1 20.71122,13.13663 l 95.11389,0 a 359.99995,345.05185 0 0 0 -12.7863,-13.13663 l -103.03881,0 z M 95.430062,309.04054 A 359.99995,345.05185 0 0 0 84.462493,322.1742 l 83.885437,0 a 296.95623,283.43189 0 0 1 15.70672,-13.13366 l -88.624588,0 z m 213.148318,0 -6.75317,13.13366 146.0981,0 -6.75317,-13.13366 -132.59176,0 z m 256.8233,0 a 296.95623,283.43189 0 0 1 15.55466,13.13366 l 84.15227,0 a 359.99995,345.05185 0 0 0 -10.43237,-13.13366 l -89.27456,0 z M 75.398633,335.19455 a 359.99995,345.05185 0 0 0 -9.145852,13.13812 l 77.451289,0 a 296.95623,283.43189 0 0 1 11.88737,-13.13812 l -80.192807,0 z m 219.730047,0 -6.75615,13.13812 79.46978,0 6.73081,-13.13812 -79.44444,0 z m 80.04672,0 6.7308,13.13812 79.46978,0 -6.75615,-13.13812 -79.44443,0 z m 218.97422,0 a 296.95623,283.43189 0 0 1 11.65183,13.13812 l 77.37079,0 a 359.99995,345.05185 0 0 0 -8.41837,-13.13812 l -80.60425,0 z M 58.939081,361.35899 a 359.99995,345.05185 0 0 0 -7.282398,13.13813 l 72.542197,0 a 296.95623,283.43189 0 0 1 9.09963,-13.13813 l -74.359429,0 z m 222.735439,0 -6.75616,13.13813 79.51898,0 6.73081,-13.13813 -79.49363,0 z m 106.90585,0 6.7308,13.13813 79.51898,0 -6.75615,-13.13813 -79.49363,0 z m 228.0038,0 a 296.95623,283.43189 0 0 1 8.83726,13.13813 l 72.55263,0 a 359.99995,345.05185 0 0 0 -6.63392,-13.13813 l -74.75597,0 z M 45.468513,387.51747 a 359.99995,345.05185 0 0 0 -5.608259,13.13813 l 68.991186,0 a 296.95623,283.43189 0 0 1 6.9574,-13.13813 l -70.340327,0 z m 222.753327,0 -6.75466,13.13813 79.56966,0 6.73081,-13.13813 -79.54581,0 z m 133.75903,0 6.73081,13.13813 79.56966,0 -6.75466,-13.13813 -79.54581,0 z m 231.87383,0 a 296.95623,283.43189 0 0 1 6.97082,13.13813 l 69.17903,0 a 359.99995,345.05185 0 0 0 -5.45472,-13.13813 l -70.69513,0 z M 34.5725,413.67745 a 359.99995,345.05185 0 0 0 -4.065318,13.13812 l 66.50906,0 a 296.95623,283.43189 0 0 1 5.222148,-13.13812 l -67.66589,0 z m 220.19815,0 -6.75615,13.13812 79.62035,0 6.73081,-13.13812 -79.59501,0 z m 160.61221,0 6.73081,13.13812 79.62035,0 -6.75616,-13.13812 -79.595,0 z m 231.98265,0 a 296.95623,283.43189 0 0 1 5.31906,13.13812 l 66.92349,0 a 359.99995,345.05185 0 0 0 -4.6333,-13.13812 l -67.60925,0 z M 26.477637,439.83592 a 359.99995,345.05185 0 0 0 -3.121662,13.13813 l 64.910958,0 a 296.95623,283.43189 0 0 1 3.749279,-13.13813 l -65.538575,0 z m 214.840333,0 -6.75615,13.13813 79.67103,0 6.73081,-13.13813 -79.64569,0 z m 187.46539,0 6.73081,13.13813 79.67253,0 -6.75616,-13.13813 -79.64718,0 z m 228.86248,0 a 296.95623,283.43189 0 0 1 3.78953,13.13813 l 65.16289,0 a 359.99995,345.05185 0 0 0 -3.51075,-13.13813 l -65.44167,0 z M 20.765023,465.9959 a 359.99995,345.05185 0 0 0 -2.525363,13.13812 l 64.080602,0 a 296.95623,283.43189 0 0 1 2.443365,-13.13812 l -63.998604,0 z m 207.101757,0 -6.75615,13.13812 79.72023,0 6.73081,-13.13812 -79.69489,0 z m 214.31857,0 6.73081,13.13812 79.72172,0 -6.75615,-13.13812 -79.69638,0 z m 222.84277,0 a 296.95623,283.43189 0 0 1 2.34348,13.13812 l 63.79884,0 a 359.99995,345.05185 0 0 0 -2.08259,-13.13812 l -64.05973,0 z M 17.035125,492.15437 a 359.99995,345.05185 0 0 0 -1.213489,13.13814 l 63.181673,0 a 296.95623,283.43189 0 0 1 1.237333,-13.13814 l -63.205517,0 z m 197.378985,0 -6.75616,13.13814 79.77241,0 6.73081,-13.13814 -79.74706,0 z m 241.17174,0 6.73081,13.13814 79.7739,0 -6.75615,-13.13814 -79.74856,0 z m 214.10986,0 a 296.95623,283.43189 0 0 1 0.97495,13.13814 l 63.13695,0 a 359.99995,345.05185 0 0 0 -0.69768,-13.13814 l -63.41422,0 z M 15.022589,518.31435 a 359.99995,345.05185 0 0 0 -0.147587,7.12288 359.99995,345.05185 0 0 0 0.327971,6.01524 l 63.00725,0 a 296.95623,283.43189 0 0 1 -0.292196,-6.01524 296.95623,283.43189 0 0 1 0.384621,-7.12288 l -63.280059,0 z m 185.938841,0 -6.75615,13.13812 79.82309,0 6.73081,-13.13812 -79.79775,0 z m 268.02641,0 6.73081,13.13812 79.82459,0 -6.75616,-13.13812 -79.79924,0 z m 202.62201,0 a 296.95623,283.43189 0 0 1 0.22213,7.12288 296.95623,283.43189 0 0 1 -0.32797,6.01524 l 63.28453,0 a 359.99995,345.05185 0 0 0 0.0865,-6.01524 359.99995,345.05185 0 0 0 -0.37716,-7.12288 l -62.88799,0 z M 15.914068,544.47283 a 359.99995,345.05185 0 0 0 0.717056,13.13366 l 63.463428,0 A 296.95623,283.43189 0 0 1 79.0212,544.47283 l -63.107132,0 z m 171.596172,0 -6.75317,13.13366 79.87229,0 6.72783,-13.13366 -79.84695,0 z m 294.8781,0 6.72932,13.13366 79.87378,0 -6.75317,-13.13366 -79.84993,0 z m 188.40457,0 a 296.95623,283.43189 0 0 1 -1.12702,13.13366 l 63.17421,0 a 359.99995,345.05185 0 0 0 1.02566,-13.13366 l -63.07285,0 z M 18.475206,570.62684 a 359.99995,345.05185 0 0 0 2.103472,13.13812 l 63.986682,0 a 296.95623,283.43189 0 0 1 -2.277896,-13.13812 l -63.812258,0 z m 155.585344,0 -6.75616,13.13812 79.92298,0 6.73081,-13.13812 -79.89763,0 z m 321.7268,0 6.73081,13.13812 79.92596,0 -6.75615,-13.13812 -79.90062,0 z m 171.78699,0 a 296.95623,283.43189 0 0 1 -2.33006,13.13812 l 63.80928,0 a 359.99995,345.05185 0 0 0 2.41802,-13.13812 l -63.89724,0 z M 22.969866,596.78681 a 359.99995,345.05185 0 0 0 3.533119,13.13813 l 65.334331,0 a 296.95623,283.43189 0 0 1 -3.652373,-13.13813 l -65.215077,0 z m 137.638004,0 -6.75467,13.13813 79.97218,0 6.73081,-13.13813 -79.94832,0 z m 348.58147,0 6.73081,13.13813 79.97516,0 -6.75467,-13.13813 -79.9513,0 z m 152.5412,0 a 296.95623,283.43189 0 0 1 -3.63151,13.13813 l 65.18675,0 a 359.99995,345.05185 0 0 0 3.36914,-13.13813 l -64.92438,0 z M 30.004796,622.94529 a 359.99995,345.05185 0 0 0 4.530434,13.13812 l 67.52576,0 a 296.95623,283.43189 0 0 1 -5.171467,-13.13812 l -66.884727,0 z m 117.151884,0 -6.75615,13.13812 80.02435,0 6.73081,-13.13812 -79.99901,0 z m 375.43316,0 6.73081,13.13812 80.02733,0 -6.75615,-13.13812 -80.00199,0 z m 130.49873,0 a 296.95623,283.43189 0 0 1 -5.09694,13.13812 l 67.41694,0 a 359.99995,345.05185 0 0 0 4.04892,-13.13812 l -66.36892,0 z M 39.530787,649.10526 a 359.99995,345.05185 0 0 0 5.34738,13.13813 l 70.617613,0 a 296.95623,283.43189 0 0 1 -6.80982,-13.13813 l -69.155173,0 z m 94.173213,0 -6.75615,13.13813 80.07504,0 6.73081,-13.13813 -80.0497,0 z m 402.28783,0 6.73082,13.13813 80.07801,0 -6.75615,-13.13813 -80.05268,0 z m 105.37484,0 a 296.95623,283.43189 0 0 1 -6.75466,13.13813 l 70.06304,0 a 359.99995,345.05185 0 0 0 5.39061,-13.13813 l -68.69899,0 z M 51.477795,675.26375 a 359.99995,345.05185 0 0 0 6.659255,13.13812 l 44.15203,0 6.75615,-13.13812 -57.567435,0 z m 68.775025,0 -6.75616,13.13812 80.12573,0 6.73081,-13.13812 -80.10038,0 z m 429.13951,0 6.73082,13.13812 80.1287,0 -6.75616,-13.13812 -80.10336,0 z m 91.30946,0 6.75466,13.13812 43.74058,0 a 359.99995,345.05185 0 0 0 7.04238,-13.13812 l -57.53762,0 z M 66.187186,701.42371 a 359.99995,345.05185 0 0 0 8.446686,13.13813 l 14.20402,0 6.754664,-13.13813 -29.40537,0 z m 40.612954,0 -6.75616,13.13813 80.17641,0 6.73081,-13.13813 -80.15106,0 z m 455.99419,0 6.73081,13.13813 80.17938,0 -6.75615,-13.13813 -80.15404,0 z m 91.35864,0 6.75616,13.13813 13.84773,0 a 359.99995,345.05185 0 0 0 8.87603,-13.13813 l -29.47992,0 z m -560.804016,26.15849 -6.756152,13.13812 80.225598,0 6.73081,-13.13812 -80.200256,0 z m 482.845876,0 6.73081,13.13812 80.23007,0 -6.75615,-13.13812 -80.20473,0 z m -396.82269,10.49648 -1.35361,2.64164 4.57964,0 a 296.95623,283.43189 0 0 1 -3.22603,-2.64164 z m 391.00572,0.0238 a 296.95623,283.43189 0 0 1 -3.46753,2.61779 l 4.80922,0 -1.34169,-2.61779 z m -490.481583,15.63963 -6.754664,13.13663 80.276287,0 6.72932,-13.13663 -80.250943,0 z m 91.451073,0 -6.72932,13.13663 56.63869,0 a 296.95623,283.43189 0 0 1 -20.82899,-13.13663 l -29.08038,0 z m 378.31183,0 a 296.95623,283.43189 0 0 1 -20.90651,13.13663 l 56.36738,0 -6.72932,-13.13663 -28.73155,0 z m 39.93764,0 6.73081,13.13663 80.27927,0 -6.75466,-13.13663 -80.25542,0 z m -523.151732,26.15848 -6.756152,13.13813 80.326974,0 6.73081,-13.13813 -80.301632,0 z m 91.501762,0 -6.73081,13.13813 128.8723,0 a 296.95623,283.43189 0 0 1 -33.60636,-13.13813 l -88.53513,0 z m 345.63721,0 a 296.95623,283.43189 0 0 1 -33.10247,13.13813 l 128.04045,0 -6.73081,-13.13813 -88.20717,0 z m 99.41326,0 6.73081,13.13813 80.33145,0 -6.75616,-13.13813 -80.3061,0 z m -584.414783,26.15848 0,13.13812 288.909073,0 0,-13.13812 -288.909073,0 z m 423.675863,0 0,13.13812 288.90758,0 0,-13.13812 -288.90758,0 z m -423.675863,26.15997 0,13.13813 288.909073,0 0,-13.13813 -288.909073,0 z m 423.675863,0 0,13.13813 288.90758,0 0,-13.13813 -288.90758,0 z m -423.675863,26.15849 0,13.16197 288.909073,0 0,-13.16197 -288.909073,0 z m 423.675863,0 0,13.16197 288.90758,0 0,-13.16197 -288.90758,0 z"
       id="path4283"
       inkscape:export-xdpi="150"
       inkscape:export-ydpi="150" />
    <path
       style="color:#000000;font-style:normal;font-variant:normal;font-weight:normal;font-stretch:normal;font-size:medium;line-height:normal;font-family:sans-serif;text-indent:0;text-align:start;text-decoration:none;text-decoration-line:none;text-decoration-style:solid;text-decoration-color:#000000;letter-spacing:normal;word-spacing:normal;text-transform:none;direction:ltr;block-progression:tb;writing-mode:lr-tb;baseline-shift:baseline;text-anchor:start;white-space:normal;clip-rule:nonzero;display:inline;overflow:visible;visibility:visible;opacity:1;isolation:auto;mix-blend-mode:normal;color-interpolation:sRGB;color-interpolation-filters:linearRGB;solid-color:#000000;solid-opacity:1;fill:#d40000;fill-opacity:1;fill-rule:nonzero;stroke:none;stroke-width:2;stroke-linecap:round;stroke-linejoin:round;stroke-miterlimit:4;stroke-dasharray:none;stroke-dashoffset:0;stroke-opacity:1;color-rendering:auto;image-rendering:auto;shape-rendering:auto;text-rendering:auto;enable-background:accumulate"
       d="m 351.4179,304.44564 0,0.0249 a 2.4915982,2.4915982 0 0 0 -2.49135,2.48163 l -0.17514,30.17348 c -0.15073,15.75055 -0.14749,29.49607 -0.74449,39.36057 -0.29854,4.93362 -0.75789,8.9138 -1.3965,11.54666 -0.31932,1.31643 -0.69574,2.28905 -0.99751,2.81248 -0.22223,0.38567 -0.20181,0.31864 -0.18013,0.31142 -31.1835,-1.4121 -63.4142,-0.86998 -94.49122,-2.4475 a 2.4915982,2.4915982 0 0 0 -2.60814,2.27236 c -1.65879,19.11463 -1.54768,23.57489 -0.42818,43.78346 a 2.4915982,2.4915982 0 0 0 2.61297,2.35034 l 45.61797,-2.28705 c 10.16241,-0.21426 21.8086,-0.54013 31.33163,-0.67142 4.76152,-0.0648 8.99738,-0.0822 12.21832,-0.0249 1.61048,0.0349 2.97046,0.0872 3.99005,0.16692 1.01961,0.0772 1.78802,0.23668 1.74686,0.22422 0.54338,0.1744 0.4321,-0.10712 0.82723,1.21653 0.3951,1.32465 0.7205,4.06389 0.89531,8.57373 0.34966,9.01993 0.25866,25.19177 0.75909,53.82684 l -0.21899,64.05483 -12.92387,-0.6034 c -50.0091,-6.73263 -80.49203,-14.16731 -158.32718,-42.03654 a 2.4915982,2.4915982 0 0 0 -3.03148,1.15799 c -9.03961,16.64071 -20.33827,31.53748 -33.75486,45.66169 a 2.4915982,2.4915982 0 0 0 -0.214,3.17273 c 22.6042,31.27117 45.84147,61.64046 71.30026,88.5986 -0.0568,0.0498 -0.0374,0.0424 -0.0974,0.0922 -0.86439,0.72573 -2.05668,1.62162 -3.484,2.61293 -2.85459,1.98261 -6.64914,4.34367 -10.79746,6.66137 -18.87381,10.54463 -44.58742,28.89342 -65.70447,45.80296 -10.55852,8.45464 -19.95316,16.53732 -26.76741,23.1374 -3.40712,3.29979 -6.164363,6.2204 -8.140674,8.70029 -1.976288,2.47964 -3.430467,4.19219 -3.430467,6.8268 0,0.93275 0.247644,1.41807 0.496326,1.96592 0.248636,0.5481 0.560776,1.09594 0.934261,1.6981 0.74693,1.20417 1.748252,2.6073 2.948735,4.17511 2.400988,3.13536 5.587119,6.90726 8.875429,10.57353 3.28833,3.66652 6.6678,7.21669 9.48367,9.89738 1.40796,1.3401 2.66861,2.46145 3.76136,3.30403 0.54638,0.42153 1.04649,0.77181 1.56684,1.06554 0.52034,0.29349 0.98094,0.62783 2.06313,0.62783 0.83421,0 1.05805,-0.18436 1.34787,-0.31142 0.2898,-0.12706 0.54748,-0.26209 0.82721,-0.42353 0.55943,-0.32263 1.19756,-0.74441 1.96096,-1.26984 1.52677,-1.05036 3.52299,-2.52274 5.8829,-4.33569 4.71981,-3.62617 10.88184,-8.59964 17.39076,-14.07214 44.79247,-37.66083 82.62948,-50.06426 152.97955,-50.04109 35.53685,0 71.99134,2.84562 130.15353,18.36872 46.43845,12.39396 84.6449,23.51395 128.41153,27.1421 7.42811,0.61586 18.06833,1.42629 27.34158,1.97564 4.63663,0.27455 8.92636,0.4878 12.32536,0.57425 3.39902,0.0872 5.53224,0.18935 7.33782,-0.23419 a 2.4915982,2.4915982 0 0 0 1.28459,-0.76384 c 6.43308,-7.15575 12.71181,-13.41602 18.58292,-22.86993 a 2.4915982,2.4915982 0 0 0 -2.35996,-3.79059 c -6.46156,0.63952 -9.54052,0.72448 -20.81153,0.0672 -50.38664,-2.92683 -86.40577,-11.41386 -147.94817,-26.97682 -13.9181,-3.51977 -49.02497,-12.06984 -64.88699,-15.45409 -20.27696,-4.32572 -63.13163,-9.55357 -86.06834,-9.20129 -38.71608,0.59493 -70.2573,6.31631 -81.66953,9.60041 -9.41015,2.70784 -21.6639,7.06098 -32.68922,11.17694 8.59887,-6.5545 19.24124,-13.90521 32.35835,-21.47319 20.02885,-11.55587 42.84926,-22.45603 60.60983,-27.29298 26.85989,-7.3151 69.17999,-10.46366 100.98724,-7.46433 31.29767,2.95126 71.81665,11.23324 94.25279,17.96986 16.18786,4.86036 40.55127,16.74709 56.91661,23.51683 16.54538,6.84473 47.9733,16.11978 72.15181,17.81913 7.55629,0.53116 13.27389,1.07601 25.07895,1.0217 a 2.4915982,2.4915982 0 0 0 1.61549,-0.6034 c 8.06616,-6.96034 15.51697,-15.10331 21.20078,-23.5024 a 2.4915982,2.4915982 0 0 0 -2.15559,-3.88775 c -8.06544,0.30694 -13.17886,0.56255 -24.69941,0.11212 -29.08413,-1.1388 -67.72307,-10.7868 -94.07763,-24.67009 28.87158,-24.24082 61.24992,-57.24672 83.45534,-87.12423 a 2.4915982,2.4915982 0 0 0 -0.15098,-3.15803 l -8.76837,-9.70254 c -4.54649,-5.03252 -10.78276,-14.63667 -13.36667,-20.55861 -1.3868,-3.17797 -2.70425,-6.14217 -3.72242,-8.36944 -0.50908,-1.11388 -0.94604,-2.03818 -1.27973,-2.72977 -0.16692,-0.34605 -0.30477,-0.63405 -0.42821,-0.87098 -0.12357,-0.23667 -0.0316,-0.2292 -0.50605,-0.80271 -0.54162,-0.65248 -1.11811,-0.8057 -1.45492,-0.87596 -0.3376,-0.0698 -0.54244,-0.0548 -0.71041,-0.0473 -0.33596,0.0249 -0.53429,0.0598 -0.73963,0.10712 -0.41067,0.0922 -0.80725,0.21426 -1.28947,0.37968 -0.96443,0.32911 -2.22064,0.81468 -3.74188,1.44025 -3.04249,1.25066 -7.11408,3.04942 -11.52735,5.10926 -19.18546,8.95541 -64.92174,23.15884 -92.22857,28.57752 -10.99405,2.18142 -33.71984,4.2465 -49.90972,4.49115 l -26.5679,0 -0.20927,-65.1545 0,-0.0299 c 0.24365,-24.93118 0.13552,-40.72908 0.60823,-50.34294 0.23644,-4.8103 0.64243,-8.08368 1.19214,-9.99929 0.49458,-1.72351 0.8621,-2.09322 1.25056,-2.2726 0.064,-0.002 0.42993,-0.0847 0.86126,-0.13204 0.63455,-0.0598 1.54845,-0.1146 2.68112,-0.15446 2.26535,-0.0847 5.42789,-0.11959 9.30362,-0.0723 7.75152,0.0947 18.357,0.52268 30.48985,1.54737 12.21987,1.03217 23.58144,1.81595 32.07123,2.24321 4.24491,0.21426 7.76584,0.33683 10.34981,0.36 1.29199,0 2.3475,0.002 3.1823,-0.0448 0.41743,-0.0249 0.77494,-0.0548 1.12891,-0.10713 0.35394,-0.0524 0.60525,0.0249 1.40138,-0.46713 a 2.4915982,2.4915982 0 0 0 1.12402,-1.58151 c 3.39502,-15.29315 3.88783,-27.44445 2.31619,-44.2359 a 2.4915982,2.4915982 0 0 0 -2.55949,-2.2579 l -43.28719,1.31866 c -18.6849,0.34307 -35.41856,1.30548 -49.97781,0.72998 -0.48001,-0.18436 -0.91109,-0.4634 -1.47924,-1.81496 -0.60597,-1.44174 -1.14585,-3.86533 -1.50844,-7.27473 -0.72518,-6.81833 -0.83208,-17.54832 -0.83208,-33.12698 l 0,-42.04649 a 2.4915982,2.4915982 0 0 0 -2.49135,-2.49136 l -23.66781,0 -23.66782,0 z M 203.70815,564.3489 c 26.50429,10.06854 64.16918,17.35001 82.58919,20.50007 71.77428,12.27487 103.50866,11.06782 142.88764,8.63701 a 2.4915982,2.4915982 0 0 0 0.0292,0 c 27.489,-2.07156 68.96809,-6.94713 91.37703,-12.84116 9.93789,-2.61891 23.94593,-7.78896 31.57008,-11.36205 2.72765,5.37434 6.28368,9.40285 10.57363,13.45926 -20.83336,23.67679 -40.9441,39.23526 -68.27853,57.02375 -1.06859,-0.31715 -11.45777,-3.40318 -22.78222,-6.58364 -72.35436,-20.31995 -151.62578,-23.80733 -208.87919,0.3747 -5.40972,2.28481 -7.75971,3.37154 -13.46886,5.92169 -22.92728,-20.81996 -30.51412,-31.75051 -54.45934,-63.73868 3.50574,-3.12167 6.59587,-7.02361 8.84137,-11.39095 z"
       id="rect4259"
       inkscape:connector-curvature="0"
       inkscape:export-xdpi="150"
       inkscape:export-ydpi="150" />
  </g>
</svg>
